HIERARCHY
ROOT hip
{
  OFFSET 0 0 0
  CHANNELS 6 Xposition Yposition Zposition Zrotation Yrotation Xrotation
  JOINT abdomen
  {
    OFFSET 0 20.6881 -0.73152
    CHANNELS 3 Zrotation Xrotation Yrotation
    JOINT chest
    {
      OFFSET 0 11.7043 -0.48768
      CHANNELS 3 Zrotation Xrotation Yrotation
      JOINT neck
      {
        OFFSET 0 22.1894 -2.19456
        CHANNELS 3 Zrotation Xrotation Yrotation
        JOINT head
        {
          OFFSET -0.24384 7.07133 1.2192
          CHANNELS 3 Zrotation Xrotation Yrotation
          JOINT leftEye
          {
            OFFSET 4.14528 8.04674 8.04672
            CHANNELS 3 Zrotation Xrotation Yrotation
            End Site
            {
              OFFSET 1 0 0
            }
          }
          JOINT rightEye
          {
            OFFSET -3.6576 8.04674 8.04672
            CHANNELS 3 Zrotation Xrotation Yrotation
            End Site
            {
              OFFSET 1 0 0
            }
          }
        }
      }
      JOINT rCollar
      {
        OFFSET -2.68224 19.2634 -4.8768
        CHANNELS 3 Zrotation Xrotation Yrotation
        JOINT rShldr
        {
          OFFSET -8.77824 -1.95073 1.46304
          CHANNELS 3 Zrotation Xrotation Yrotation
          JOINT rForeArm
          {
            OFFSET -28.1742 -1.7115 0.48768
            CHANNELS 3 Zrotation Xrotation Yrotation
            JOINT rHand
            {
              OFFSET -22.5879 0.773209 7.07136
              CHANNELS 3 Zrotation Xrotation Yrotation
              JOINT rThumb1
              {
                OFFSET -1.2192 -0.487915 3.41376
                CHANNELS 3 Zrotation Xrotation Yrotation
                JOINT rThumb2
                {
                  OFFSET -3.37035 -0.52449 3.41376
                  CHANNELS 3 Zrotation Xrotation Yrotation
                  End Site
                  {
                    OFFSET -1.78271 -1.18214 1.43049
                  }
                }
              }
              JOINT rIndex1
              {
                OFFSET -7.75947 0.938293 5.60832
                CHANNELS 3 Zrotation Xrotation Yrotation
                JOINT rIndex2
                {
                  OFFSET -2.54057 -0.884171 1.56538
                  CHANNELS 3 Zrotation Xrotation Yrotation
                  End Site
                  {
                    OFFSET -1.62519 -0.234802 1.16502
                  }
                }
              }
              JOINT rMid1
              {
                OFFSET -8.24714 1.18213 3.41376
                CHANNELS 3 Zrotation Xrotation Yrotation
                JOINT rMid2
                {
                  OFFSET -3.10165 -0.590103 1.0647
                  CHANNELS 3 Zrotation Xrotation Yrotation
                  End Site
                  {
                    OFFSET -2.48547 -0.328903 0.83742
                  }
                }
              }
              JOINT rRing1
              {
                OFFSET -8.82822 0.546677 1.51678
                CHANNELS 3 Zrotation Xrotation Yrotation
                JOINT rRing2
                {
                  OFFSET -2.60934 -0.819778 -0.0198488
                  CHANNELS 3 Zrotation Xrotation Yrotation
                  End Site
                  {
                    OFFSET -2.33842 -0.294052 0.168128
                  }
                }
              }
              JOINT rPinky1
              {
                OFFSET -8.27202 -0.0477905 -0.4584
                CHANNELS 3 Zrotation Xrotation Yrotation
                JOINT rPinky2
                {
                  OFFSET -1.82734 -0.647385 -0.700984
                  CHANNELS 3 Zrotation Xrotation Yrotation
                  End Site
                  {
                    OFFSET -1.69225 -0.51767 -0.607171
                  }
                }
              }
            }
          }
        }
      }
      JOINT lCollar
      {
        OFFSET 2.68224 19.2634 -4.8768
        CHANNELS 3 Zrotation Xrotation Yrotation
        JOINT lShldr
        {
          OFFSET 8.77824 -1.95073 1.46304
          CHANNELS 3 Zrotation Xrotation Yrotation
          JOINT lForeArm
          {
            OFFSET 28.1742 -1.7115 0.48768
            CHANNELS 3 Zrotation Xrotation Yrotation
            JOINT lHand
            {
              OFFSET 22.5879 0.773209 7.07136
              CHANNELS 3 Zrotation Xrotation Yrotation
              JOINT lThumb1
              {
                OFFSET 1.2192 -0.487915 3.41376
                CHANNELS 3 Zrotation Xrotation Yrotation
                JOINT lThumb2
                {
                  OFFSET 3.37035 -0.52449 3.41376
                  CHANNELS 3 Zrotation Xrotation Yrotation
                  End Site
                  {
                    OFFSET 1.78271 -1.18214 1.43049
                  }
                }
              }
              JOINT lIndex1
              {
                OFFSET 7.75947 0.938293 5.60832
                CHANNELS 3 Zrotation Xrotation Yrotation
                JOINT lIndex2
                {
                  OFFSET 2.54057 -0.884171 1.56538
                  CHANNELS 3 Zrotation Xrotation Yrotation
                  End Site
                  {
                    OFFSET 1.62519 -0.234802 1.16502
                  }
                }
              }
              JOINT lMid1
              {
                OFFSET 8.24714 1.18213 3.41376
                CHANNELS 3 Zrotation Xrotation Yrotation
                JOINT lMid2
                {
                  OFFSET 3.10165 -0.590103 1.0647
                  CHANNELS 3 Zrotation Xrotation Yrotation
                  End Site
                  {
                    OFFSET 2.48547 -0.328903 0.83742
                  }
                }
              }
              JOINT lRing1
              {
                OFFSET 8.82822 0.546677 1.51678
                CHANNELS 3 Zrotation Xrotation Yrotation
                JOINT lRing2
                {
                  OFFSET 2.60934 -0.819778 -0.0198488
                  CHANNELS 3 Zrotation Xrotation Yrotation
                  End Site
                  {
                    OFFSET 2.33842 -0.294052 0.168128
                  }
                }
              }
              JOINT lPinky1
              {
                OFFSET 8.27202 -0.0477905 -0.4584
                CHANNELS 3 Zrotation Xrotation Yrotation
                JOINT lPinky2
                {
                  OFFSET 1.82734 -0.647385 -0.700984
                  CHANNELS 3 Zrotation Xrotation Yrotation
                  End Site
                  {
                    OFFSET 1.69225 -0.51767 -0.607171
                  }
                }
              }
            }
          }
        }
      }
    }
  }
  JOINT rButtock
  {
    OFFSET -8.77824 4.35084 1.2192
    CHANNELS 3 Zrotation Xrotation Yrotation
    JOINT rThigh
    {
      OFFSET 0 -1.70687 -2.19456
      CHANNELS 3 Zrotation Xrotation Yrotation
      JOINT rShin
      {
        OFFSET 0 -36.8199 0.73152
        CHANNELS 3 Zrotation Xrotation Yrotation
        JOINT rFoot
        {
          OFFSET 0.73152 -45.1104 -5.12064
          CHANNELS 3 Zrotation Xrotation Yrotation
          End Site
          {
            OFFSET -1.1221 -3.69964 12.103
          }
        }
      }
    }
  }
  JOINT lButtock
  {
    OFFSET 8.77824 4.35084 1.2192
    CHANNELS 3 Zrotation Xrotation Yrotation
    JOINT lThigh
    {
      OFFSET 0 -1.70687 -2.19456
      CHANNELS 3 Zrotation Xrotation Yrotation
      JOINT lShin
      {
        OFFSET 0 -36.8199 0.73152
        CHANNELS 3 Zrotation Xrotation Yrotation
        JOINT lFoot
        {
          OFFSET -0.73152 -45.1104 -5.12064
          CHANNELS 3 Zrotation Xrotation Yrotation
          End Site
          {
            OFFSET 1.1221 -3.69964 12.103
          }
        }
      }
    }
  }
}
MOTION
Frames:	4
Frame Time:	0.03333
-0.004096329212188721 62.101030349731445 0.06348188035190105 -3.7558887004852295 2.064936637878418 5.748600006103516 -2.4876482486724854 14.659892082214355 3.8254687786102295 2.6613306999206543 -9.682076454162598 1.1368026733398438 -5.097059726715088 14.990204811096191 -3.6386191844940186 8.805915832519531 -24.0218448638916 -5.183174133300781 -0.0015515399863943458 -0.015387499704957008 -0.030772818252444267 -0.040897954255342484 -0.004678178112953901 0.0377669632434845 0.034709423780441284 0.05163722485303879 0.008439799770712852 44.63532638549805 37.72904586791992 19.717927932739258 -27.57662582397461 -28.496173858642578 64.6739501953125 -0.1720215231180191 -11.872836112976074 -1.6879515647888184 0.04030304774641991 -0.07317222654819489 -0.0035471036098897457 0.013741540722548962 0.010944109410047531 0.008440508507192135 0.03430970758199692 0.01525761466473341 0.012791586108505726 7.72150182723999 5.488273620605469 0.4420725405216217 0.012678593397140503 0.052071694284677505 -0.14366178214550018 2.9077706336975098 0.9812441468238831 0.12018373608589172 0.01839832030236721 0.04459838941693306 -0.033257532864809036 10.266878128051758 0.7221440672874451 0.008353397250175476 0.02571248821914196 -0.006270181853324175 -0.053223658353090286 2.2647249698638916 -0.7736102342605591 -0.18283550441265106 -0.02479632757604122 -0.00787168275564909 0.006540882401168346 -52.77114486694336 39.52486801147461 -29.14537239074707 27.033069610595703 -26.468318939208984 -61.52814483642578 0.2553373873233795 -13.785505294799805 1.9477040767669678 -0.003018572460860014 -0.041040241718292236 -0.007679386530071497 0.027431702241301537 0.0713762417435646 -0.008030809462070465 0.04262604936957359 0.0218349602073431 0.044216178357601166 -7.731659412384033 5.50667667388916 -0.39998066425323486 0.059832606464624405 -0.019064858555793762 0.018198419362306595 -2.8752150535583496 0.9885470867156982 -0.08235393464565277 0.0051730903796851635 -0.009734080173075199 -0.007138787768781185 -10.335758209228516 0.7189784646034241 -0.07115063071250916 0.0543232224881649 -0.016439467668533325 -0.017753303050994873 -2.213313579559326 -0.6891809105873108 0.183281809091568 0.020253395661711693 0.031989000737667084 0.003368343459442258 -25.267879486083984 -40.13584899902344 -20.79433822631836 -1.426738977432251 65.45274353027344 2.5678586959838867 -3.6732711791992188 -11.013096809387207 -9.936529159545898 -0.013831968419253826 0.0023675626143813133 0.002988399937748909 30.411544799804688 -39.907466888427734 23.052326202392578 1.5477114915847778 65.63948822021484 -2.6672568321228027 4.112115383148193 -10.814069747924805 13.467044830322266
0.04136711359024048 61.86244487762451 0.07040230557322502 -3.416588544845581 2.28106427192688 6.063192844390869 -2.626436471939087 14.480398178100586 3.923701047897339 2.7877354621887207 -9.642075538635254 1.2291072607040405 -5.127798557281494 14.994399070739746 -3.634510040283203 8.813806533813477 -23.933635711669922 -5.115378379821777 0.02450205199420452 -0.03686262667179108 0.013183793053030968 -0.08880529552698135 -0.018572095781564713 0.007634557783603668 0.03896811977028847 0.050560809671878815 0.01322146411985159 44.557132720947266 37.70712661743164 19.798852920532227 -27.54389762878418 -28.618024826049805 64.87931060791016 -0.15951044857501984 -11.664725303649902 -1.625854730606079 0.08158857375383377 -0.08979108184576035 0.01776631735265255 0.039206624031066895 0.015765145421028137 -0.02899090014398098 0.028330031782388687 -0.0015195446321740746 -0.006106318440288305 7.777783393859863 5.5324788093566895 0.4784701466560364 -0.026827745139598846 0.06209162622690201 -0.16252976655960083 2.9237513542175293 1.0545899868011475 0.10633447766304016 -0.04546140134334564 0.03657469153404236 -0.0497378408908844 10.230247497558594 0.7058919072151184 0.02488761581480503 0.05144055187702179 -0.03842879459261894 -0.031231792643666267 2.263679265975952 -0.8030827045440674 -0.08940945565700531 -0.05701424553990364 0.07891902327537537 0.06824017316102982 -52.974822998046875 39.381046295166016 -28.990209579467773 27.088380813598633 -26.510251998901367 -61.52328109741211 0.31072723865509033 -13.831779479980469 1.8423550128936768 9.872109512798488e-05 -0.0453379824757576 -0.03442257270216942 0.10501815378665924 0.11782857775688171 -0.01962118037045002 0.05149040371179581 0.08669346570968628 0.058474693447351456 -7.742903709411621 5.533705711364746 -0.38500744104385376 0.07925330102443695 -0.00395074300467968 0.04285237938165665 -2.8711109161376953 0.9462131857872009 -0.06168404966592789 -0.023673485964536667 -0.05014211684465408 -0.07600506395101547 -10.427472114562988 0.7266656756401062 -0.047154977917671204 0.09212048351764679 -0.06027797609567642 0.03459916263818741 -2.232429027557373 -0.7072376608848572 0.19087383151054382 0.05436084046959877 0.09944744408130646 -0.006302145775407553 -25.422008514404297 -40.0750732421875 -20.738231658935547 -1.5580986738204956 65.40587615966797 2.592200517654419 -3.6534407138824463 -10.983805656433105 -9.98703384399414 -0.0401105098426342 0.024148207157850266 -0.007464411668479443 30.42214584350586 -39.924339294433594 22.954158782958984 1.519881010055542 65.46617889404297 -2.7095839977264404 3.9641685485839844 -10.729204177856445 13.28415584564209
-0.2650884911417961 69.33789849281311 -0.4495935048907995 -3.2208499908447266 3.5000667572021484 3.427125930786133 -2.8180696964263916 9.627348899841309 1.7339608669281006 3.405625820159912 -6.6130051612854 0.035964589565992355 -5.613467693328857 14.016650199890137 -5.1255879402160645 7.256420612335205 -23.49689292907715 -9.299656867980957 -0.1426367163658142 -0.046077560633420944 0.14599597454071045 0.1398419886827469 0.08268814533948898 0.002759923692792654 0.07347851246595383 -0.015376719646155834 0.3138224184513092 65.37635040283203 30.115522384643555 1.1228737831115723 -16.710865020751953 -8.929532051086426 29.404277801513672 -0.11292855441570282 7.432703018188477 1.2982038259506226 -0.24035026133060455 -0.3678911626338959 0.023570731282234192 0.04491983726620674 0.2697339355945587 0.2147628664970398 0.18796323239803314 0.1207275241613388 -0.189931258559227 7.901507377624512 5.691252708435059 0.5000760555267334 -0.19445717334747314 -0.1176316887140274 -0.41285938024520874 2.8398687839508057 1.3203943967819214 -0.1771262288093567 0.22056925296783447 0.09541443735361099 -0.4073845148086548 10.1157865524292 0.7172895073890686 -0.23110546171665192 -0.03687948361039162 0.12335887551307678 -0.20177480578422546 2.140371799468994 -0.7912142276763916 -0.13990996778011322 -0.006464686244726181 0.09125328063964844 0.06574618071317673 -65.03614807128906 30.184669494628906 -22.560935974121094 12.350075721740723 -5.740514755249023 -21.998577117919922 0.5317273139953613 19.217540740966797 -2.81256365776062 -0.008554997853934765 -0.007082021329551935 0.22229662537574768 0.3358358144760132 0.07648302614688873 -0.017487958073616028 0.010860594920814037 0.10085388273000717 0.14210978150367737 -7.739172458648682 5.492611408233643 -0.3621133863925934 -0.03990168124437332 -0.05313514173030853 -0.052427057176828384 -2.6826744079589844 0.6820719242095947 0.04949288070201874 -0.22891463339328766 -0.08104691654443741 -0.2605566680431366 -10.465452194213867 0.5681887269020081 0.2479996532201767 -0.11096281558275223 -0.13027742505073547 -0.15428367257118225 -2.335580348968506 -0.9028860926628113 0.016986412927508354 0.055703550577163696 0.2518332302570343 -0.15804298222064972 -4.529070854187012 -25.061208724975586 0.700921356678009 -0.4287697374820709 47.460453033447266 1.4876554012298584 -4.76123046875 -10.31212043762207 -14.136992454528809 -0.0077161421068012714 -0.16030287742614746 0.0328286774456501 8.188521385192871 -26.728254318237305 -1.2321451902389526 0.2866608202457428 44.59150695800781 -1.1275372505187988 3.7653656005859375 -6.385796070098877 15.274110794067383
-0.31948788091540337 73.59277606010437 -1.0903751477599144 -1.5320574045181274 7.731567859649658 2.407783269882202 -4.10602331161499 9.251354217529297 3.7740540504455566 1.713474154472351 -7.196727275848389 1.130575180053711 -4.843232154846191 13.860289573669434 -2.619077205657959 5.744075298309326 -21.735450744628906 -4.415087699890137 -0.23461295664310455 -0.13588346540927887 -0.22564168274402618 -0.17614297568798065 -0.14014023542404175 -0.416030615568161 -0.22642475366592407 0.29245907068252563 -0.21397605538368225 66.94232177734375 28.392349243164062 3.9381582736968994 -14.061685562133789 -7.257144927978516 25.181047439575195 -0.008732276037335396 5.507223606109619 0.7425509691238403 -0.2924562394618988 -0.4776384234428406 0.21929103136062622 0.4601300358772278 0.08283498138189316 -0.029064293950796127 0.09562265127897263 0.4116753041744232 0.031277187168598175 7.780093193054199 5.558167457580566 0.03152630478143692 -0.397970587015152 0.15040323138237 -0.20007233321666718 3.0455074310302734 1.117630958557129 0.3653346598148346 0.12725719809532166 0.17640353739261627 -0.1722971349954605 10.390207290649414 0.8541421890258789 0.3593440353870392 0.2055889368057251 -0.00979120098054409 0.24886980652809143 1.957097053527832 -0.8652433156967163 -0.175615131855011 -0.13479454815387726 0.033091552555561066 -0.37746182084083557 -70.66154479980469 28.51374053955078 -18.510221481323242 12.747532844543457 -5.943001747131348 -22.48211097717285 0.4041769504547119 14.703051567077637 -2.213953971862793 0.056557245552539825 0.18440455198287964 0.061388034373521805 -0.19307328760623932 -0.11746969819068909 -0.21931906044483185 0.24623249471187592 0.31142014265060425 0.3235074281692505 -7.7154316902160645 5.640899181365967 -0.14601582288742065 -0.25665706396102905 0.4564959406852722 0.06856878101825714 -2.714879035949707 0.6772066950798035 0.4046440124511719 -0.2988143563270569 0.17262940108776093 -0.450846791267395 -10.26396369934082 0.5986741781234741 0.05607297644019127 0.23333565890789032 -0.1902027279138565 -0.31978946924209595 -2.277519941329956 -0.9142611026763916 0.16462984681129456 0.2565835416316986 -0.008280503563582897 -0.5648617148399353 -0.6437439322471619 -29.55133819580078 2.9296977519989014 -1.3375624418258667 52.084712982177734 1.8258507251739502 -4.797085285186768 -12.382037162780762 -12.978983879089355 0.3795889616012573 0.24500498175621033 -0.07793962210416794 2.3635613918304443 -33.54302215576172 -4.863781452178955 0.08503728359937668 51.067142486572266 -1.0174874067306519 3.5381476879119873 -8.649789810180664 11.548577308654785
